<svg xmlns="http://www.w3.org/2000/svg" viewBox="0 0 1440 320"><path fill="#ff6300" fill-opacity="1" d="M0,224L26.7,202.7C53.3,181,107,139,160,128C213.3,117,267,139,320,165.3C373.3,192,427,224,480,234.7C533.3,245,587,235,640,213.3C693.3,192,747,160,800,160C853.3,160,907,192,960,197.3C1013.3,203,1067,181,1120,165.3C1173.3,149,1227,139,1280,122.7C1333.3,107,1387,85,1413,74.7L1440,64L1440,320L1413.3,320C1386.7,320,1333,320,1280,320C1226.7,320,1173,320,1120,320C1066.7,320,1013,320,960,320C906.7,320,853,320,800,320C746.7,320,693,320,640,320C586.7,320,533,320,480,320C426.7,320,373,320,320,320C266.7,320,213,320,160,320C106.7,320,53,320,27,320L0,320Z"></path></svg>